solid OpenSCAD_Model
  facet normal -1 0 0
    outer loop
      vertex 0 0 0
      vertex 0 48 6
      vertex 0 48 0
    endloop
  endfacet
  facet normal -1 -0 0
    outer loop
      vertex 0 48 6
      vertex 0 0 0
      vertex 0 0 6
    endloop
  endfacet
  facet normal 0 0 1
    outer loop
      vertex 96.2 48 6
      vertex 92.11 32 6
      vertex 96.2 0 6
    endloop
  endfacet
  facet normal 0 0 1
    outer loop
      vertex 96.2 48 6
      vertex 92.1 45 6
      vertex 92.11 32 6
    endloop
  endfacet
  facet normal 0 0 1
    outer loop
      vertex 96.2 48 6
      vertex 4.1 45 6
      vertex 92.1 45 6
    endloop
  endfacet
  facet normal 0 0 1
    outer loop
      vertex 4.1 45 6
      vertex 0 48 6
      vertex 4.1 3 6
    endloop
  endfacet
  facet normal -0 0 1
    outer loop
      vertex 0 48 6
      vertex 4.1 45 6
      vertex 96.2 48 6
    endloop
  endfacet
  facet normal -0 0 1
    outer loop
      vertex 92.11 13 6
      vertex 96.2 0 6
      vertex 92.11 32 6
    endloop
  endfacet
  facet normal 0 0 1
    outer loop
      vertex 92.1 3 6
      vertex 92.11 13 6
      vertex 92.1 13 6
    endloop
  endfacet
  facet normal 0 0 1
    outer loop
      vertex 92.11 13 6
      vertex 92.1 3 6
      vertex 96.2 0 6
    endloop
  endfacet
  facet normal -0 0 1
    outer loop
      vertex 4.1 3 6
      vertex 96.2 0 6
      vertex 92.1 3 6
    endloop
  endfacet
  facet normal 0 0 1
    outer loop
      vertex 4.1 3 6
      vertex 0 0 6
      vertex 96.2 0 6
    endloop
  endfacet
  facet normal 0 0 1
    outer loop
      vertex 0 0 6
      vertex 4.1 3 6
      vertex 0 48 6
    endloop
  endfacet
  facet normal 0 0 1
    outer loop
      vertex 92.11 32 6
      vertex 92.1 45 6
      vertex 92.1 32 6
    endloop
  endfacet
  facet normal 1 -0 0
    outer loop
      vertex 96.2 0 6
      vertex 96.2 48 0
      vertex 96.2 48 6
    endloop
  endfacet
  facet normal 1 0 0
    outer loop
      vertex 96.2 48 0
      vertex 96.2 0 6
      vertex 96.2 0 0
    endloop
  endfacet
  facet normal 0 1 -0
    outer loop
      vertex 96.2 48 0
      vertex 0 48 6
      vertex 96.2 48 6
    endloop
  endfacet
  facet normal 0 1 0
    outer loop
      vertex 0 48 6
      vertex 96.2 48 0
      vertex 0 48 0
    endloop
  endfacet
  facet normal 0 0 -1
    outer loop
      vertex 9 39 0
      vertex 14.6 41.5 0
      vertex 50 39 0
    endloop
  endfacet
  facet normal 0 0 -1
    outer loop
      vertex 9 39 0
      vertex 1.6 41.5 0
      vertex 14.6 41.5 0
    endloop
  endfacet
  facet normal 0 0 -1
    outer loop
      vertex 1.6 41.5 0
      vertex 9 39 0
      vertex 1.6 6.5 0
    endloop
  endfacet
  facet normal 0 0 -1
    outer loop
      vertex 14.6 6.5 0
      vertex 50 9 0
      vertex 14.6 1.5 0
    endloop
  endfacet
  facet normal 0 0 -1
    outer loop
      vertex 14.6 6.5 0
      vertex 9 9 0
      vertex 50 9 0
    endloop
  endfacet
  facet normal -0 0 -1
    outer loop
      vertex 9 9 0
      vertex 1.6 6.5 0
      vertex 9 39 0
    endloop
  endfacet
  facet normal 0 0 -1
    outer loop
      vertex 1.6 6.5 0
      vertex 9 9 0
      vertex 14.6 6.5 0
    endloop
  endfacet
  facet normal 0 0 -1
    outer loop
      vertex 94.6 6.5 0
      vertex 86.86 15 0
      vertex 94.6 41.5 0
    endloop
  endfacet
  facet normal 0 0 -1
    outer loop
      vertex 81.6 6.5 0
      vertex 86.86 15 0
      vertex 94.6 6.5 0
    endloop
  endfacet
  facet normal -0 0 -1
    outer loop
      vertex 86.86 15 0
      vertex 81.6 6.5 0
      vertex 76.86 15 0
    endloop
  endfacet
  facet normal 0 0 -1
    outer loop
      vertex 94.6 6.5 0
      vertex 96.2 0 0
      vertex 94.6 1.5 0
    endloop
  endfacet
  facet normal 0 0 -1
    outer loop
      vertex 96.2 0 0
      vertex 81.6 1.5 0
      vertex 94.6 1.5 0
    endloop
  endfacet
  facet normal 0 0 -1
    outer loop
      vertex 81.6 1.5 0
      vertex 76.86 15 0
      vertex 81.6 6.5 0
    endloop
  endfacet
  facet normal -0 0 -1
    outer loop
      vertex 76.86 15 0
      vertex 50 9 0
      vertex 76.86 33 0
    endloop
  endfacet
  facet normal 0 0 -1
    outer loop
      vertex 81.6 1.5 0
      vertex 50 9 0
      vertex 76.86 15 0
    endloop
  endfacet
  facet normal 0 0 -1
    outer loop
      vertex 81.6 1.5 0
      vertex 14.6 1.5 0
      vertex 50 9 0
    endloop
  endfacet
  facet normal 0 0 -1
    outer loop
      vertex 96.2 0 0
      vertex 14.6 1.5 0
      vertex 81.6 1.5 0
    endloop
  endfacet
  facet normal 0 0 -1
    outer loop
      vertex 0 0 0
      vertex 14.6 1.5 0
      vertex 96.2 0 0
    endloop
  endfacet
  facet normal 0 0 -1
    outer loop
      vertex 0 0 0
      vertex 1.6 6.5 0
      vertex 1.6 1.5 0
    endloop
  endfacet
  facet normal -0 0 -1
    outer loop
      vertex 1.6 6.5 0
      vertex 0 0 0
      vertex 1.6 41.5 0
    endloop
  endfacet
  facet normal 0 0 -1
    outer loop
      vertex 0 48 0
      vertex 1.6 41.5 0
      vertex 0 0 0
    endloop
  endfacet
  facet normal -0 0 -1
    outer loop
      vertex 14.6 1.5 0
      vertex 0 0 0
      vertex 1.6 1.5 0
    endloop
  endfacet
  facet normal 0 0 -1
    outer loop
      vertex 96.2 0 0
      vertex 94.6 6.5 0
      vertex 96.2 48 0
    endloop
  endfacet
  facet normal 0 0 -1
    outer loop
      vertex 94.6 41.5 0
      vertex 96.2 48 0
      vertex 94.6 6.5 0
    endloop
  endfacet
  facet normal 0 0 -1
    outer loop
      vertex 94.6 46.5 0
      vertex 96.2 48 0
      vertex 94.6 41.5 0
    endloop
  endfacet
  facet normal 0 0 -1
    outer loop
      vertex 81.6 46.5 0
      vertex 96.2 48 0
      vertex 94.6 46.5 0
    endloop
  endfacet
  facet normal 0 0 -1
    outer loop
      vertex 50 39 0
      vertex 76.86 33 0
      vertex 50 9 0
    endloop
  endfacet
  facet normal 0 0 -1
    outer loop
      vertex 76.86 33 0
      vertex 50 39 0
      vertex 81.6 46.5 0
    endloop
  endfacet
  facet normal 0 0 -1
    outer loop
      vertex 14.6 46.5 0
      vertex 50 39 0
      vertex 14.6 41.5 0
    endloop
  endfacet
  facet normal 0 0 -1
    outer loop
      vertex 50 39 0
      vertex 14.6 46.5 0
      vertex 81.6 46.5 0
    endloop
  endfacet
  facet normal 0 0 -1
    outer loop
      vertex 81.6 46.5 0
      vertex 14.6 46.5 0
      vertex 96.2 48 0
    endloop
  endfacet
  facet normal 0 0 -1
    outer loop
      vertex 0 48 0
      vertex 14.6 46.5 0
      vertex 1.6 46.5 0
    endloop
  endfacet
  facet normal 0 0 -1
    outer loop
      vertex 14.6 46.5 0
      vertex 0 48 0
      vertex 96.2 48 0
    endloop
  endfacet
  facet normal 0 0 -1
    outer loop
      vertex 1.6 41.5 0
      vertex 0 48 0
      vertex 1.6 46.5 0
    endloop
  endfacet
  facet normal 0 0 -1
    outer loop
      vertex 86.86 33 0
      vertex 94.6 41.5 0
      vertex 86.86 15 0
    endloop
  endfacet
  facet normal 0 0 -1
    outer loop
      vertex 86.86 33 0
      vertex 81.6 41.5 0
      vertex 94.6 41.5 0
    endloop
  endfacet
  facet normal -0 0 -1
    outer loop
      vertex 81.6 41.5 0
      vertex 76.86 33 0
      vertex 81.6 46.5 0
    endloop
  endfacet
  facet normal 0 0 -1
    outer loop
      vertex 76.86 33 0
      vertex 81.6 41.5 0
      vertex 86.86 33 0
    endloop
  endfacet
  facet normal 0 -1 0
    outer loop
      vertex 0 0 0
      vertex 96.2 0 6
      vertex 0 0 6
    endloop
  endfacet
  facet normal 0 -1 -0
    outer loop
      vertex 96.2 0 6
      vertex 0 0 0
      vertex 96.2 0 0
    endloop
  endfacet
  facet normal -1 0 0
    outer loop
      vertex 4.1 3 6
      vertex 4.1 45 10
      vertex 4.1 45 6
    endloop
  endfacet
  facet normal -1 -0 0
    outer loop
      vertex 4.1 45 10
      vertex 4.1 3 6
      vertex 4.1 3 10
    endloop
  endfacet
  facet normal 0 0 1
    outer loop
      vertex 92.1 45 10
      vertex 89.61 37 10
      vertex 92.1 32 10
    endloop
  endfacet
  facet normal 0 0 1
    outer loop
      vertex 92.1 45 10
      vertex 59.11 37 10
      vertex 89.61 37 10
    endloop
  endfacet
  facet normal 0 0 1
    outer loop
      vertex 53 26.5 10
      vertex 59.11 31 10
      vertex 59.11 37 10
    endloop
  endfacet
  facet normal 0 0 1
    outer loop
      vertex 59.11 31 10
      vertex 55 26.5 10
      vertex 59.11 28 10
    endloop
  endfacet
  facet normal 0 0 1
    outer loop
      vertex 59.11 28 10
      vertex 55 26.5 10
      vertex 59.11 20 10
    endloop
  endfacet
  facet normal -0 0 1
    outer loop
      vertex 55 21.5 10
      vertex 59.11 20 10
      vertex 55 26.5 10
    endloop
  endfacet
  facet normal 0 0 1
    outer loop
      vertex 59.11 20 10
      vertex 55 21.5 10
      vertex 59.11 17 10
    endloop
  endfacet
  facet normal 0 0 1
    outer loop
      vertex 53 26.5 10
      vertex 59.11 37 10
      vertex 53 42 10
    endloop
  endfacet
  facet normal 0 0 1
    outer loop
      vertex 92.1 45 10
      vertex 53 42 10
      vertex 59.11 37 10
    endloop
  endfacet
  facet normal 0 0 1
    outer loop
      vertex 92.1 45 10
      vertex 32 44 10
      vertex 53 42 10
    endloop
  endfacet
  facet normal -0 0 1
    outer loop
      vertex 4.1 45 10
      vertex 32 44 10
      vertex 92.1 45 10
    endloop
  endfacet
  facet normal 0 0 1
    outer loop
      vertex 27 44 10
      vertex 6 42 10
      vertex 27 42 10
    endloop
  endfacet
  facet normal 0 0 1
    outer loop
      vertex 6 42 10
      vertex 4.1 45 10
      vertex 6 6 10
    endloop
  endfacet
  facet normal 0 0 1
    outer loop
      vertex 27 44 10
      vertex 4.1 45 10
      vertex 6 42 10
    endloop
  endfacet
  facet normal 0 0 1
    outer loop
      vertex 32 44 10
      vertex 4.1 45 10
      vertex 27 44 10
    endloop
  endfacet
  facet normal 0 0 1
    outer loop
      vertex 92.1 32 10
      vertex 89.61 37 10
      vertex 89.61 32 10
    endloop
  endfacet
  facet normal -0 0 1
    outer loop
      vertex 59.11 31 10
      vertex 60.1925 28 10
      vertex 60.1925 31 10
    endloop
  endfacet
  facet normal 0 0 1
    outer loop
      vertex 60.1925 28 10
      vertex 59.11 31 10
      vertex 59.11 28 10
    endloop
  endfacet
  facet normal -0 0 1
    outer loop
      vertex 59.11 20 10
      vertex 60.1925 17 10
      vertex 60.1925 20 10
    endloop
  endfacet
  facet normal 0 0 1
    outer loop
      vertex 60.1925 17 10
      vertex 59.11 20 10
      vertex 59.11 17 10
    endloop
  endfacet
  facet normal 0 0 1
    outer loop
      vertex 89.61 11 10
      vertex 92.1 13 10
      vertex 89.61 13 10
    endloop
  endfacet
  facet normal 0 0 1
    outer loop
      vertex 92.1 13 10
      vertex 89.61 11 10
      vertex 92.1 3 10
    endloop
  endfacet
  facet normal -0 0 1
    outer loop
      vertex 59.11 11 10
      vertex 92.1 3 10
      vertex 89.61 11 10
    endloop
  endfacet
  facet normal -0 0 1
    outer loop
      vertex 53 21.5 10
      vertex 59.11 17 10
      vertex 55 21.5 10
    endloop
  endfacet
  facet normal 0 0 1
    outer loop
      vertex 59.11 17 10
      vertex 53 21.5 10
      vertex 59.11 11 10
    endloop
  endfacet
  facet normal 0 0 1
    outer loop
      vertex 53 6 10
      vertex 59.11 11 10
      vertex 53 21.5 10
    endloop
  endfacet
  facet normal -0 0 1
    outer loop
      vertex 53 6 10
      vertex 92.1 3 10
      vertex 59.11 11 10
    endloop
  endfacet
  facet normal 0 0 1
    outer loop
      vertex 4.1 3 10
      vertex 53 6 10
      vertex 6 6 10
    endloop
  endfacet
  facet normal 0 0 1
    outer loop
      vertex 53 6 10
      vertex 4.1 3 10
      vertex 92.1 3 10
    endloop
  endfacet
  facet normal 0 0 1
    outer loop
      vertex 4.1 3 10
      vertex 6 6 10
      vertex 4.1 45 10
    endloop
  endfacet
  facet normal 0 0 1
    outer loop
      vertex 59.11 31 10
      vertex 53 26.5 10
      vertex 55 26.5 10
    endloop
  endfacet
  facet normal 0 0 1
    outer loop
      vertex 53 42 10
      vertex 32 44 10
      vertex 32 42 10
    endloop
  endfacet
  facet normal 1 -0 0
    outer loop
      vertex 92.1 3 10
      vertex 92.1 13 6
      vertex 92.1 13 10
    endloop
  endfacet
  facet normal 1 0 0
    outer loop
      vertex 92.1 13 6
      vertex 92.1 3 10
      vertex 92.1 3 6
    endloop
  endfacet
  facet normal 1 -0 0
    outer loop
      vertex 92.1 32 10
      vertex 92.1 45 6
      vertex 92.1 45 10
    endloop
  endfacet
  facet normal 1 0 0
    outer loop
      vertex 92.1 45 6
      vertex 92.1 32 10
      vertex 92.1 32 6
    endloop
  endfacet
  facet normal 0 1 -0
    outer loop
      vertex 92.1 45 6
      vertex 4.1 45 10
      vertex 92.1 45 10
    endloop
  endfacet
  facet normal 0 1 0
    outer loop
      vertex 4.1 45 10
      vertex 92.1 45 6
      vertex 4.1 45 6
    endloop
  endfacet
  facet normal 0 -1 0
    outer loop
      vertex 4.1 3 6
      vertex 92.1 3 10
      vertex 4.1 3 10
    endloop
  endfacet
  facet normal 0 -1 -0
    outer loop
      vertex 92.1 3 10
      vertex 4.1 3 6
      vertex 92.1 3 6
    endloop
  endfacet
  facet normal 1 0 0
    outer loop
      vertex 59.11 17 10
      vertex 59.11 11 10
      vertex 59.11 17 8.60479
    endloop
  endfacet
  facet normal 1 0 0
    outer loop
      vertex 59.11 28 10
      vertex 59.11 20 10
      vertex 59.11 28 8.60479
    endloop
  endfacet
  facet normal 1 0 0
    outer loop
      vertex 59.11 31 8.60479
      vertex 59.11 37 10
      vertex 59.11 31 10
    endloop
  endfacet
  facet normal 1 0 0
    outer loop
      vertex 59.11 37 10
      vertex 59.11 31 8.60479
      vertex 59.11 37 3.7
    endloop
  endfacet
  facet normal 1 -0 0
    outer loop
      vertex 59.11 28 8.60479
      vertex 59.11 37 3.7
      vertex 59.11 31 8.60479
    endloop
  endfacet
  facet normal 1 0 0
    outer loop
      vertex 59.11 20 8.60479
      vertex 59.11 28 8.60479
      vertex 59.11 20 10
    endloop
  endfacet
  facet normal 1 0 0
    outer loop
      vertex 59.11 28 8.60479
      vertex 59.11 20 8.60479
      vertex 59.11 37 3.7
    endloop
  endfacet
  facet normal 1 0 0
    outer loop
      vertex 59.11 11 3.7
      vertex 59.11 20 8.60479
      vertex 59.11 17 8.60479
    endloop
  endfacet
  facet normal 1 0 0
    outer loop
      vertex 59.11 11 3.7
      vertex 59.11 17 8.60479
      vertex 59.11 11 10
    endloop
  endfacet
  facet normal 1 0 0
    outer loop
      vertex 59.11 20 8.60479
      vertex 59.11 11 3.7
      vertex 59.11 37 3.7
    endloop
  endfacet
  facet normal -1 0 0
    outer loop
      vertex 89.61 11 3.7
      vertex 89.61 13 10
      vertex 89.61 13 3.7
    endloop
  endfacet
  facet normal -1 -0 0
    outer loop
      vertex 89.61 13 10
      vertex 89.61 11 3.7
      vertex 89.61 11 10
    endloop
  endfacet
  facet normal -1 0 0
    outer loop
      vertex 89.61 32 3.7
      vertex 89.61 37 10
      vertex 89.61 37 3.7
    endloop
  endfacet
  facet normal -1 -0 0
    outer loop
      vertex 89.61 37 10
      vertex 89.61 32 3.7
      vertex 89.61 32 10
    endloop
  endfacet
  facet normal 0 -1 0
    outer loop
      vertex 59.11 37 3.7
      vertex 89.61 37 10
      vertex 59.11 37 10
    endloop
  endfacet
  facet normal 0 -1 -0
    outer loop
      vertex 89.61 37 10
      vertex 59.11 37 3.7
      vertex 89.61 37 3.7
    endloop
  endfacet
  facet normal -0 0 1
    outer loop
      vertex 86.86 33 3.7
      vertex 89.61 32 3.7
      vertex 89.61 37 3.7
    endloop
  endfacet
  facet normal 0 0 1
    outer loop
      vertex 86.86 15 3.7
      vertex 89.61 32 3.7
      vertex 86.86 33 3.7
    endloop
  endfacet
  facet normal 0 0 1
    outer loop
      vertex 89.61 32 3.7
      vertex 86.86 15 3.7
      vertex 89.61 13 3.7
    endloop
  endfacet
  facet normal 0 0 1
    outer loop
      vertex 89.61 37 3.7
      vertex 76.86 33 3.7
      vertex 86.86 33 3.7
    endloop
  endfacet
  facet normal 0 0 1
    outer loop
      vertex 76.86 33 3.7
      vertex 59.11 37 3.7
      vertex 76.86 15 3.7
    endloop
  endfacet
  facet normal -0 0 1
    outer loop
      vertex 59.11 37 3.7
      vertex 76.86 33 3.7
      vertex 89.61 37 3.7
    endloop
  endfacet
  facet normal -0 0 1
    outer loop
      vertex 89.61 32 3.7
      vertex 92.11 13 3.7
      vertex 92.11 32 3.7
    endloop
  endfacet
  facet normal 0 0 1
    outer loop
      vertex 92.11 13 3.7
      vertex 89.61 32 3.7
      vertex 89.61 13 3.7
    endloop
  endfacet
  facet normal 0 0 1
    outer loop
      vertex 89.61 13 3.7
      vertex 86.86 15 3.7
      vertex 89.61 11 3.7
    endloop
  endfacet
  facet normal -0 0 1
    outer loop
      vertex 76.86 15 3.7
      vertex 89.61 11 3.7
      vertex 86.86 15 3.7
    endloop
  endfacet
  facet normal 0 0 1
    outer loop
      vertex 76.86 15 3.7
      vertex 59.11 11 3.7
      vertex 89.61 11 3.7
    endloop
  endfacet
  facet normal 0 0 1
    outer loop
      vertex 59.11 11 3.7
      vertex 76.86 15 3.7
      vertex 59.11 37 3.7
    endloop
  endfacet
  facet normal 0 1 -0
    outer loop
      vertex 89.61 11 3.7
      vertex 59.11 11 10
      vertex 89.61 11 10
    endloop
  endfacet
  facet normal 0 1 0
    outer loop
      vertex 59.11 11 10
      vertex 89.61 11 3.7
      vertex 59.11 11 3.7
    endloop
  endfacet
  facet normal 0.829039 0 -0.55919
    outer loop
      vertex 60.0277 17 9.1641
      vertex 59.9808 20 9.09466
      vertex 60.0277 20 9.1641
    endloop
  endfacet
  facet normal 0.829039 0 -0.55919
    outer loop
      vertex 59.9808 20 9.09466
      vertex 60.0277 17 9.1641
      vertex 59.9808 17 9.09466
    endloop
  endfacet
  facet normal 0.999391 -0 0.0348866
    outer loop
      vertex 60.2071 17 9.88371
      vertex 60.21 20 9.8
      vertex 60.2071 20 9.88371
    endloop
  endfacet
  facet normal 0.999391 0 0.0348866
    outer loop
      vertex 60.21 20 9.8
      vertex 60.2071 17 9.88371
      vertex 60.21 17 9.8
    endloop
  endfacet
  facet normal 0.984806 0 -0.173659
    outer loop
      vertex 60.1983 17 9.63299
      vertex 60.1838 20 9.55051
      vertex 60.1983 20 9.63299
    endloop
  endfacet
  facet normal 0.984806 0 -0.173659
    outer loop
      vertex 60.1838 20 9.55051
      vertex 60.1983 17 9.63299
      vertex 60.1838 17 9.55051
    endloop
  endfacet
  facet normal 0.970294 0 -0.241927
    outer loop
      vertex 60.1838 17 9.55051
      vertex 60.1635 20 9.46923
      vertex 60.1838 20 9.55051
    endloop
  endfacet
  facet normal 0.970294 0 -0.241927
    outer loop
      vertex 60.1635 20 9.46923
      vertex 60.1838 17 9.55051
      vertex 60.1635 17 9.46923
    endloop
  endfacet
  facet normal 0.788011 0 -0.615661
    outer loop
      vertex 59.9808 17 9.09466
      vertex 59.9293 20 9.02865
      vertex 59.9808 20 9.09466
    endloop
  endfacet
  facet normal 0.788011 0 -0.615661
    outer loop
      vertex 59.9293 20 9.02865
      vertex 59.9808 17 9.09466
      vertex 59.9293 17 9.02865
    endloop
  endfacet
  facet normal 0.694668 0 -0.71933
    outer loop
      vertex 59.813 17 8.90823
      vertex 59.8732 20 8.96641
      vertex 59.8732 17 8.96641
    endloop
  endfacet
  facet normal 0.694668 0 -0.71933
    outer loop
      vertex 59.8732 20 8.96641
      vertex 59.813 17 8.90823
      vertex 59.813 20 8.90823
    endloop
  endfacet
  facet normal 0.207919 0 -0.978146
    outer loop
      vertex 59.2184 17 8.61823
      vertex 59.3003 20 8.63564
      vertex 59.3003 17 8.63564
    endloop
  endfacet
  facet normal 0.207919 0 -0.978146
    outer loop
      vertex 59.3003 20 8.63564
      vertex 59.2184 17 8.61823
      vertex 59.2184 20 8.61823
    endloop
  endfacet
  facet normal 0.0697636 0 -0.997564
    outer loop
      vertex 59.11 17 8.60479
      vertex 59.1354 20 8.60657
      vertex 59.1354 17 8.60657
    endloop
  endfacet
  facet normal 0.0697636 0 -0.997564
    outer loop
      vertex 59.1354 20 8.60657
      vertex 59.11 17 8.60479
      vertex 59.11 20 8.60479
    endloop
  endfacet
  facet normal 0.64279 0 -0.766042
    outer loop
      vertex 59.7488 17 8.85439
      vertex 59.813 20 8.90823
      vertex 59.813 17 8.90823
    endloop
  endfacet
  facet normal 0.64279 0 -0.766042
    outer loop
      vertex 59.813 20 8.90823
      vertex 59.7488 17 8.85439
      vertex 59.7488 20 8.85439
    endloop
  endfacet
  facet normal 0.994522 0 -0.104524
    outer loop
      vertex 60.2071 17 9.71629
      vertex 60.1983 20 9.63299
      vertex 60.2071 20 9.71629
    endloop
  endfacet
  facet normal 0.994522 0 -0.104524
    outer loop
      vertex 60.1983 20 9.63299
      vertex 60.2071 17 9.71629
      vertex 60.1983 17 9.63299
    endloop
  endfacet
  facet normal 0.951057 0 -0.309015
    outer loop
      vertex 60.1635 17 9.46923
      vertex 60.1376 20 9.38958
      vertex 60.1635 20 9.46923
    endloop
  endfacet
  facet normal 0.951057 0 -0.309015
    outer loop
      vertex 60.1376 20 9.38958
      vertex 60.1635 17 9.46923
      vertex 60.1376 17 9.38958
    endloop
  endfacet
  facet normal 0.743142 0 -0.669133
    outer loop
      vertex 59.9293 17 9.02865
      vertex 59.8732 20 8.96641
      vertex 59.9293 20 9.02865
    endloop
  endfacet
  facet normal 0.743142 0 -0.669133
    outer loop
      vertex 59.8732 20 8.96641
      vertex 59.9293 17 9.02865
      vertex 59.8732 17 8.96641
    endloop
  endfacet
  facet normal 0.275623 0 -0.961266
    outer loop
      vertex 59.3003 17 8.63564
      vertex 59.3808 20 8.65873
      vertex 59.3808 17 8.65873
    endloop
  endfacet
  facet normal 0.275623 0 -0.961266
    outer loop
      vertex 59.3808 20 8.65873
      vertex 59.3003 17 8.63564
      vertex 59.3003 20 8.63564
    endloop
  endfacet
  facet normal 0.139172 0 -0.990268
    outer loop
      vertex 59.1354 17 8.60657
      vertex 59.2184 20 8.61823
      vertex 59.2184 17 8.61823
    endloop
  endfacet
  facet normal 0.139172 0 -0.990268
    outer loop
      vertex 59.2184 20 8.61823
      vertex 59.1354 17 8.60657
      vertex 59.1354 20 8.60657
    endloop
  endfacet
  facet normal 0.342033 0 -0.939688
    outer loop
      vertex 59.3808 17 8.65873
      vertex 59.4595 20 8.68738
      vertex 59.4595 17 8.68738
    endloop
  endfacet
  facet normal 0.342033 0 -0.939688
    outer loop
      vertex 59.4595 20 8.68738
      vertex 59.3808 17 8.65873
      vertex 59.3808 20 8.65873
    endloop
  endfacet
  facet normal 0.469472 0 -0.882948
    outer loop
      vertex 59.536 17 8.72145
      vertex 59.61 20 8.76077
      vertex 59.61 17 8.76077
    endloop
  endfacet
  facet normal 0.469472 0 -0.882948
    outer loop
      vertex 59.61 20 8.76077
      vertex 59.536 17 8.72145
      vertex 59.536 20 8.72145
    endloop
  endfacet
  facet normal 0.587776 0 -0.809024
    outer loop
      vertex 59.681 17 8.80515
      vertex 59.7488 20 8.85439
      vertex 59.7488 17 8.85439
    endloop
  endfacet
  facet normal 0.587776 0 -0.809024
    outer loop
      vertex 59.7488 20 8.85439
      vertex 59.681 17 8.80515
      vertex 59.681 20 8.80515
    endloop
  endfacet
  facet normal 0.529925 0 -0.848044
    outer loop
      vertex 59.61 17 8.76077
      vertex 59.681 20 8.80515
      vertex 59.681 17 8.80515
    endloop
  endfacet
  facet normal 0.529925 0 -0.848044
    outer loop
      vertex 59.681 20 8.80515
      vertex 59.61 17 8.76077
      vertex 59.61 20 8.76077
    endloop
  endfacet
  facet normal 0 1 0
    outer loop
      vertex 60.1983 20 9.96701
      vertex 59.11 20 10
      vertex 60.1925 20 10
    endloop
  endfacet
  facet normal 0 1 0
    outer loop
      vertex 60.2071 20 9.88371
      vertex 59.11 20 10
      vertex 60.1983 20 9.96701
    endloop
  endfacet
  facet normal 0 1 0
    outer loop
      vertex 60.21 20 9.8
      vertex 59.11 20 10
      vertex 60.2071 20 9.88371
    endloop
  endfacet
  facet normal 0 1 -0
    outer loop
      vertex 60.2071 20 9.71629
      vertex 59.11 20 10
      vertex 60.21 20 9.8
    endloop
  endfacet
  facet normal 0 1 -0
    outer loop
      vertex 60.1983 20 9.63299
      vertex 59.11 20 10
      vertex 60.2071 20 9.71629
    endloop
  endfacet
  facet normal 0 1 -0
    outer loop
      vertex 60.1838 20 9.55051
      vertex 59.11 20 10
      vertex 60.1983 20 9.63299
    endloop
  endfacet
  facet normal 0 1 -0
    outer loop
      vertex 60.1635 20 9.46923
      vertex 59.11 20 10
      vertex 60.1838 20 9.55051
    endloop
  endfacet
  facet normal 0 1 -0
    outer loop
      vertex 60.1376 20 9.38958
      vertex 59.11 20 10
      vertex 60.1635 20 9.46923
    endloop
  endfacet
  facet normal 0 1 -0
    outer loop
      vertex 60.1063 20 9.31192
      vertex 59.11 20 10
      vertex 60.1376 20 9.38958
    endloop
  endfacet
  facet normal 0 1 -0
    outer loop
      vertex 60.0695 20 9.23663
      vertex 59.11 20 10
      vertex 60.1063 20 9.31192
    endloop
  endfacet
  facet normal 0 1 -0
    outer loop
      vertex 60.0277 20 9.1641
      vertex 59.11 20 10
      vertex 60.0695 20 9.23663
    endloop
  endfacet
  facet normal 0 1 -0
    outer loop
      vertex 59.9808 20 9.09466
      vertex 59.11 20 10
      vertex 60.0277 20 9.1641
    endloop
  endfacet
  facet normal 0 1 -0
    outer loop
      vertex 59.9293 20 9.02865
      vertex 59.11 20 10
      vertex 59.9808 20 9.09466
    endloop
  endfacet
  facet normal 0 1 -0
    outer loop
      vertex 59.8732 20 8.96641
      vertex 59.11 20 10
      vertex 59.9293 20 9.02865
    endloop
  endfacet
  facet normal 0 1 -0
    outer loop
      vertex 59.813 20 8.90823
      vertex 59.11 20 10
      vertex 59.8732 20 8.96641
    endloop
  endfacet
  facet normal 0 1 -0
    outer loop
      vertex 59.7488 20 8.85439
      vertex 59.11 20 10
      vertex 59.813 20 8.90823
    endloop
  endfacet
  facet normal 0 1 -0
    outer loop
      vertex 59.681 20 8.80515
      vertex 59.11 20 10
      vertex 59.7488 20 8.85439
    endloop
  endfacet
  facet normal 0 1 -0
    outer loop
      vertex 59.61 20 8.76077
      vertex 59.11 20 10
      vertex 59.681 20 8.80515
    endloop
  endfacet
  facet normal 0 1 -0
    outer loop
      vertex 59.536 20 8.72145
      vertex 59.11 20 10
      vertex 59.61 20 8.76077
    endloop
  endfacet
  facet normal 0 1 -0
    outer loop
      vertex 59.4595 20 8.68738
      vertex 59.11 20 10
      vertex 59.536 20 8.72145
    endloop
  endfacet
  facet normal 0 1 -0
    outer loop
      vertex 59.3808 20 8.65873
      vertex 59.11 20 10
      vertex 59.4595 20 8.68738
    endloop
  endfacet
  facet normal 0 1 -0
    outer loop
      vertex 59.3003 20 8.63564
      vertex 59.11 20 10
      vertex 59.3808 20 8.65873
    endloop
  endfacet
  facet normal 0 1 -0
    outer loop
      vertex 59.2184 20 8.61823
      vertex 59.11 20 10
      vertex 59.3003 20 8.63564
    endloop
  endfacet
  facet normal 0 1 -0
    outer loop
      vertex 59.1354 20 8.60657
      vertex 59.11 20 10
      vertex 59.2184 20 8.61823
    endloop
  endfacet
  facet normal 0 1 0
    outer loop
      vertex 59.11 20 10
      vertex 59.1354 20 8.60657
      vertex 59.11 20 8.60479
    endloop
  endfacet
  facet normal 0.999391 0 -0.0348866
    outer loop
      vertex 60.21 17 9.8
      vertex 60.2071 20 9.71629
      vertex 60.21 20 9.8
    endloop
  endfacet
  facet normal 0.999391 0 -0.0348866
    outer loop
      vertex 60.2071 20 9.71629
      vertex 60.21 17 9.8
      vertex 60.2071 17 9.71629
    endloop
  endfacet
  facet normal 0.984809 -0 0.173642
    outer loop
      vertex 60.1925 17 10
      vertex 60.1983 20 9.96701
      vertex 60.1925 20 10
    endloop
  endfacet
  facet normal 0.984809 0 0.173642
    outer loop
      vertex 60.1983 20 9.96701
      vertex 60.1925 17 10
      vertex 60.1983 17 9.96701
    endloop
  endfacet
  facet normal 0.898799 0 -0.438361
    outer loop
      vertex 60.1063 17 9.31192
      vertex 60.0695 20 9.23663
      vertex 60.1063 20 9.31192
    endloop
  endfacet
  facet normal 0.898799 0 -0.438361
    outer loop
      vertex 60.0695 20 9.23663
      vertex 60.1063 17 9.31192
      vertex 60.0695 17 9.23663
    endloop
  endfacet
  facet normal 0.927186 0 -0.3746
    outer loop
      vertex 60.1376 17 9.38958
      vertex 60.1063 20 9.31192
      vertex 60.1376 20 9.38958
    endloop
  endfacet
  facet normal 0.927186 0 -0.3746
    outer loop
      vertex 60.1063 20 9.31192
      vertex 60.1376 17 9.38958
      vertex 60.1063 17 9.31192
    endloop
  endfacet
  facet normal 0.866015 0 -0.500018
    outer loop
      vertex 60.0695 17 9.23663
      vertex 60.0277 20 9.1641
      vertex 60.0695 20 9.23663
    endloop
  endfacet
  facet normal 0.866015 0 -0.500018
    outer loop
      vertex 60.0277 20 9.1641
      vertex 60.0695 17 9.23663
      vertex 60.0277 17 9.1641
    endloop
  endfacet
  facet normal 0.406724 0 -0.913551
    outer loop
      vertex 59.4595 17 8.68738
      vertex 59.536 20 8.72145
      vertex 59.536 17 8.72145
    endloop
  endfacet
  facet normal 0.406724 0 -0.913551
    outer loop
      vertex 59.536 20 8.72145
      vertex 59.4595 17 8.68738
      vertex 59.4595 20 8.68738
    endloop
  endfacet
  facet normal 0.994522 -0 0.104524
    outer loop
      vertex 60.1983 17 9.96701
      vertex 60.2071 20 9.88371
      vertex 60.1983 20 9.96701
    endloop
  endfacet
  facet normal 0.994522 0 0.104524
    outer loop
      vertex 60.2071 20 9.88371
      vertex 60.1983 17 9.96701
      vertex 60.2071 17 9.88371
    endloop
  endfacet
  facet normal 0 -1 0
    outer loop
      vertex 59.11 17 10
      vertex 60.1983 17 9.96701
      vertex 60.1925 17 10
    endloop
  endfacet
  facet normal 0 -1 0
    outer loop
      vertex 59.11 17 10
      vertex 60.2071 17 9.88371
      vertex 60.1983 17 9.96701
    endloop
  endfacet
  facet normal 0 -1 0
    outer loop
      vertex 59.11 17 10
      vertex 60.21 17 9.8
      vertex 60.2071 17 9.88371
    endloop
  endfacet
  facet normal 0 -1 0
    outer loop
      vertex 59.11 17 10
      vertex 60.2071 17 9.71629
      vertex 60.21 17 9.8
    endloop
  endfacet
  facet normal 0 -1 0
    outer loop
      vertex 59.11 17 10
      vertex 60.1983 17 9.63299
      vertex 60.2071 17 9.71629
    endloop
  endfacet
  facet normal 0 -1 0
    outer loop
      vertex 59.11 17 10
      vertex 60.1838 17 9.55051
      vertex 60.1983 17 9.63299
    endloop
  endfacet
  facet normal 0 -1 0
    outer loop
      vertex 59.11 17 10
      vertex 60.1635 17 9.46923
      vertex 60.1838 17 9.55051
    endloop
  endfacet
  facet normal 0 -1 0
    outer loop
      vertex 59.11 17 10
      vertex 60.1376 17 9.38958
      vertex 60.1635 17 9.46923
    endloop
  endfacet
  facet normal 0 -1 0
    outer loop
      vertex 59.11 17 10
      vertex 60.1063 17 9.31192
      vertex 60.1376 17 9.38958
    endloop
  endfacet
  facet normal 0 -1 0
    outer loop
      vertex 59.11 17 10
      vertex 60.0695 17 9.23663
      vertex 60.1063 17 9.31192
    endloop
  endfacet
  facet normal 0 -1 0
    outer loop
      vertex 59.11 17 10
      vertex 60.0277 17 9.1641
      vertex 60.0695 17 9.23663
    endloop
  endfacet
  facet normal 0 -1 0
    outer loop
      vertex 59.11 17 10
      vertex 59.9808 17 9.09466
      vertex 60.0277 17 9.1641
    endloop
  endfacet
  facet normal 0 -1 0
    outer loop
      vertex 59.11 17 10
      vertex 59.9293 17 9.02865
      vertex 59.9808 17 9.09466
    endloop
  endfacet
  facet normal 0 -1 0
    outer loop
      vertex 59.11 17 10
      vertex 59.8732 17 8.96641
      vertex 59.9293 17 9.02865
    endloop
  endfacet
  facet normal 0 -1 0
    outer loop
      vertex 59.11 17 10
      vertex 59.813 17 8.90823
      vertex 59.8732 17 8.96641
    endloop
  endfacet
  facet normal 0 -1 0
    outer loop
      vertex 59.11 17 10
      vertex 59.7488 17 8.85439
      vertex 59.813 17 8.90823
    endloop
  endfacet
  facet normal 0 -1 0
    outer loop
      vertex 59.11 17 10
      vertex 59.681 17 8.80515
      vertex 59.7488 17 8.85439
    endloop
  endfacet
  facet normal 0 -1 0
    outer loop
      vertex 59.11 17 10
      vertex 59.61 17 8.76077
      vertex 59.681 17 8.80515
    endloop
  endfacet
  facet normal 0 -1 0
    outer loop
      vertex 59.11 17 10
      vertex 59.536 17 8.72145
      vertex 59.61 17 8.76077
    endloop
  endfacet
  facet normal 0 -1 0
    outer loop
      vertex 59.11 17 10
      vertex 59.4595 17 8.68738
      vertex 59.536 17 8.72145
    endloop
  endfacet
  facet normal 0 -1 0
    outer loop
      vertex 59.11 17 10
      vertex 59.3808 17 8.65873
      vertex 59.4595 17 8.68738
    endloop
  endfacet
  facet normal 0 -1 0
    outer loop
      vertex 59.11 17 10
      vertex 59.3003 17 8.63564
      vertex 59.3808 17 8.65873
    endloop
  endfacet
  facet normal 0 -1 0
    outer loop
      vertex 59.11 17 10
      vertex 59.2184 17 8.61823
      vertex 59.3003 17 8.63564
    endloop
  endfacet
  facet normal 0 -1 0
    outer loop
      vertex 59.11 17 10
      vertex 59.1354 17 8.60657
      vertex 59.2184 17 8.61823
    endloop
  endfacet
  facet normal -0 -1 0
    outer loop
      vertex 59.1354 17 8.60657
      vertex 59.11 17 10
      vertex 59.11 17 8.60479
    endloop
  endfacet
  facet normal 0.866015 0 -0.500018
    outer loop
      vertex 60.0695 28 9.23663
      vertex 60.0277 31 9.1641
      vertex 60.0695 31 9.23663
    endloop
  endfacet
  facet normal 0.866015 0 -0.500018
    outer loop
      vertex 60.0277 31 9.1641
      vertex 60.0695 28 9.23663
      vertex 60.0277 28 9.1641
    endloop
  endfacet
  facet normal 0.342033 0 -0.939688
    outer loop
      vertex 59.3808 28 8.65873
      vertex 59.4595 31 8.68738
      vertex 59.4595 28 8.68738
    endloop
  endfacet
  facet normal 0.342033 0 -0.939688
    outer loop
      vertex 59.4595 31 8.68738
      vertex 59.3808 28 8.65873
      vertex 59.3808 31 8.65873
    endloop
  endfacet
  facet normal 0.999391 -0 0.0348866
    outer loop
      vertex 60.2071 28 9.88371
      vertex 60.21 31 9.8
      vertex 60.2071 31 9.88371
    endloop
  endfacet
  facet normal 0.999391 0 0.0348866
    outer loop
      vertex 60.21 31 9.8
      vertex 60.2071 28 9.88371
      vertex 60.21 28 9.8
    endloop
  endfacet
  facet normal 0.529925 0 -0.848044
    outer loop
      vertex 59.61 28 8.76077
      vertex 59.681 31 8.80515
      vertex 59.681 28 8.80515
    endloop
  endfacet
  facet normal 0.529925 0 -0.848044
    outer loop
      vertex 59.681 31 8.80515
      vertex 59.61 28 8.76077
      vertex 59.61 31 8.76077
    endloop
  endfacet
  facet normal 0.788011 0 -0.615661
    outer loop
      vertex 59.9808 28 9.09466
      vertex 59.9293 31 9.02865
      vertex 59.9808 31 9.09466
    endloop
  endfacet
  facet normal 0.788011 0 -0.615661
    outer loop
      vertex 59.9293 31 9.02865
      vertex 59.9808 28 9.09466
      vertex 59.9293 28 9.02865
    endloop
  endfacet
  facet normal 0.694668 0 -0.71933
    outer loop
      vertex 59.813 28 8.90823
      vertex 59.8732 31 8.96641
      vertex 59.8732 28 8.96641
    endloop
  endfacet
  facet normal 0.694668 0 -0.71933
    outer loop
      vertex 59.8732 31 8.96641
      vertex 59.813 28 8.90823
      vertex 59.813 31 8.90823
    endloop
  endfacet
  facet normal 0.275623 0 -0.961266
    outer loop
      vertex 59.3003 28 8.63564
      vertex 59.3808 31 8.65873
      vertex 59.3808 28 8.65873
    endloop
  endfacet
  facet normal 0.275623 0 -0.961266
    outer loop
      vertex 59.3808 31 8.65873
      vertex 59.3003 28 8.63564
      vertex 59.3003 31 8.63564
    endloop
  endfacet
  facet normal 0.207919 0 -0.978146
    outer loop
      vertex 59.2184 28 8.61823
      vertex 59.3003 31 8.63564
      vertex 59.3003 28 8.63564
    endloop
  endfacet
  facet normal 0.207919 0 -0.978146
    outer loop
      vertex 59.3003 31 8.63564
      vertex 59.2184 28 8.61823
      vertex 59.2184 31 8.61823
    endloop
  endfacet
  facet normal 0.469472 0 -0.882948
    outer loop
      vertex 59.536 28 8.72145
      vertex 59.61 31 8.76077
      vertex 59.61 28 8.76077
    endloop
  endfacet
  facet normal 0.469472 0 -0.882948
    outer loop
      vertex 59.61 31 8.76077
      vertex 59.536 28 8.72145
      vertex 59.536 31 8.72145
    endloop
  endfacet
  facet normal 0.64279 0 -0.766042
    outer loop
      vertex 59.7488 28 8.85439
      vertex 59.813 31 8.90823
      vertex 59.813 28 8.90823
    endloop
  endfacet
  facet normal 0.64279 0 -0.766042
    outer loop
      vertex 59.813 31 8.90823
      vertex 59.7488 28 8.85439
      vertex 59.7488 31 8.85439
    endloop
  endfacet
  facet normal 0.994522 -0 0.104524
    outer loop
      vertex 60.1983 28 9.96701
      vertex 60.2071 31 9.88371
      vertex 60.1983 31 9.96701
    endloop
  endfacet
  facet normal 0.994522 0 0.104524
    outer loop
      vertex 60.2071 31 9.88371
      vertex 60.1983 28 9.96701
      vertex 60.2071 28 9.88371
    endloop
  endfacet
  facet normal 0.951057 0 -0.309015
    outer loop
      vertex 60.1635 28 9.46923
      vertex 60.1376 31 9.38958
      vertex 60.1635 31 9.46923
    endloop
  endfacet
  facet normal 0.951057 0 -0.309015
    outer loop
      vertex 60.1376 31 9.38958
      vertex 60.1635 28 9.46923
      vertex 60.1376 28 9.38958
    endloop
  endfacet
  facet normal 0.984806 0 -0.173659
    outer loop
      vertex 60.1983 28 9.63299
      vertex 60.1838 31 9.55051
      vertex 60.1983 31 9.63299
    endloop
  endfacet
  facet normal 0.984806 0 -0.173659
    outer loop
      vertex 60.1838 31 9.55051
      vertex 60.1983 28 9.63299
      vertex 60.1838 28 9.55051
    endloop
  endfacet
  facet normal 0.829039 0 -0.55919
    outer loop
      vertex 60.0277 28 9.1641
      vertex 59.9808 31 9.09466
      vertex 60.0277 31 9.1641
    endloop
  endfacet
  facet normal 0.829039 0 -0.55919
    outer loop
      vertex 59.9808 31 9.09466
      vertex 60.0277 28 9.1641
      vertex 59.9808 28 9.09466
    endloop
  endfacet
  facet normal 0.743142 0 -0.669133
    outer loop
      vertex 59.9293 28 9.02865
      vertex 59.8732 31 8.96641
      vertex 59.9293 31 9.02865
    endloop
  endfacet
  facet normal 0.743142 0 -0.669133
    outer loop
      vertex 59.8732 31 8.96641
      vertex 59.9293 28 9.02865
      vertex 59.8732 28 8.96641
    endloop
  endfacet
  facet normal 0.139172 0 -0.990268
    outer loop
      vertex 59.1354 28 8.60657
      vertex 59.2184 31 8.61823
      vertex 59.2184 28 8.61823
    endloop
  endfacet
  facet normal 0.139172 0 -0.990268
    outer loop
      vertex 59.2184 31 8.61823
      vertex 59.1354 28 8.60657
      vertex 59.1354 31 8.60657
    endloop
  endfacet
  facet normal 0.0697636 0 -0.997564
    outer loop
      vertex 59.11 28 8.60479
      vertex 59.1354 31 8.60657
      vertex 59.1354 28 8.60657
    endloop
  endfacet
  facet normal 0.0697636 0 -0.997564
    outer loop
      vertex 59.1354 31 8.60657
      vertex 59.11 28 8.60479
      vertex 59.11 31 8.60479
    endloop
  endfacet
  facet normal 0.406724 0 -0.913551
    outer loop
      vertex 59.4595 28 8.68738
      vertex 59.536 31 8.72145
      vertex 59.536 28 8.72145
    endloop
  endfacet
  facet normal 0.406724 0 -0.913551
    outer loop
      vertex 59.536 31 8.72145
      vertex 59.4595 28 8.68738
      vertex 59.4595 31 8.68738
    endloop
  endfacet
  facet normal 0.587776 0 -0.809024
    outer loop
      vertex 59.681 28 8.80515
      vertex 59.7488 31 8.85439
      vertex 59.7488 28 8.85439
    endloop
  endfacet
  facet normal 0.587776 0 -0.809024
    outer loop
      vertex 59.7488 31 8.85439
      vertex 59.681 28 8.80515
      vertex 59.681 31 8.80515
    endloop
  endfacet
  facet normal 0 1 0
    outer loop
      vertex 60.1983 31 9.96701
      vertex 59.11 31 10
      vertex 60.1925 31 10
    endloop
  endfacet
  facet normal 0 1 0
    outer loop
      vertex 60.2071 31 9.88371
      vertex 59.11 31 10
      vertex 60.1983 31 9.96701
    endloop
  endfacet
  facet normal 0 1 0
    outer loop
      vertex 60.21 31 9.8
      vertex 59.11 31 10
      vertex 60.2071 31 9.88371
    endloop
  endfacet
  facet normal 0 1 -0
    outer loop
      vertex 60.2071 31 9.71629
      vertex 59.11 31 10
      vertex 60.21 31 9.8
    endloop
  endfacet
  facet normal 0 1 -0
    outer loop
      vertex 60.1983 31 9.63299
      vertex 59.11 31 10
      vertex 60.2071 31 9.71629
    endloop
  endfacet
  facet normal 0 1 -0
    outer loop
      vertex 60.1838 31 9.55051
      vertex 59.11 31 10
      vertex 60.1983 31 9.63299
    endloop
  endfacet
  facet normal 0 1 -0
    outer loop
      vertex 60.1635 31 9.46923
      vertex 59.11 31 10
      vertex 60.1838 31 9.55051
    endloop
  endfacet
  facet normal 0 1 -0
    outer loop
      vertex 60.1376 31 9.38958
      vertex 59.11 31 10
      vertex 60.1635 31 9.46923
    endloop
  endfacet
  facet normal 0 1 -0
    outer loop
      vertex 60.1063 31 9.31192
      vertex 59.11 31 10
      vertex 60.1376 31 9.38958
    endloop
  endfacet
  facet normal 0 1 -0
    outer loop
      vertex 60.0695 31 9.23663
      vertex 59.11 31 10
      vertex 60.1063 31 9.31192
    endloop
  endfacet
  facet normal 0 1 -0
    outer loop
      vertex 60.0277 31 9.1641
      vertex 59.11 31 10
      vertex 60.0695 31 9.23663
    endloop
  endfacet
  facet normal 0 1 -0
    outer loop
      vertex 59.9808 31 9.09466
      vertex 59.11 31 10
      vertex 60.0277 31 9.1641
    endloop
  endfacet
  facet normal 0 1 -0
    outer loop
      vertex 59.9293 31 9.02865
      vertex 59.11 31 10
      vertex 59.9808 31 9.09466
    endloop
  endfacet
  facet normal 0 1 -0
    outer loop
      vertex 59.8732 31 8.96641
      vertex 59.11 31 10
      vertex 59.9293 31 9.02865
    endloop
  endfacet
  facet normal 0 1 -0
    outer loop
      vertex 59.813 31 8.90823
      vertex 59.11 31 10
      vertex 59.8732 31 8.96641
    endloop
  endfacet
  facet normal 0 1 -0
    outer loop
      vertex 59.7488 31 8.85439
      vertex 59.11 31 10
      vertex 59.813 31 8.90823
    endloop
  endfacet
  facet normal 0 1 -0
    outer loop
      vertex 59.681 31 8.80515
      vertex 59.11 31 10
      vertex 59.7488 31 8.85439
    endloop
  endfacet
  facet normal 0 1 -0
    outer loop
      vertex 59.61 31 8.76077
      vertex 59.11 31 10
      vertex 59.681 31 8.80515
    endloop
  endfacet
  facet normal 0 1 -0
    outer loop
      vertex 59.536 31 8.72145
      vertex 59.11 31 10
      vertex 59.61 31 8.76077
    endloop
  endfacet
  facet normal 0 1 -0
    outer loop
      vertex 59.4595 31 8.68738
      vertex 59.11 31 10
      vertex 59.536 31 8.72145
    endloop
  endfacet
  facet normal 0 1 -0
    outer loop
      vertex 59.3808 31 8.65873
      vertex 59.11 31 10
      vertex 59.4595 31 8.68738
    endloop
  endfacet
  facet normal 0 1 -0
    outer loop
      vertex 59.3003 31 8.63564
      vertex 59.11 31 10
      vertex 59.3808 31 8.65873
    endloop
  endfacet
  facet normal 0 1 -0
    outer loop
      vertex 59.2184 31 8.61823
      vertex 59.11 31 10
      vertex 59.3003 31 8.63564
    endloop
  endfacet
  facet normal 0 1 -0
    outer loop
      vertex 59.1354 31 8.60657
      vertex 59.11 31 10
      vertex 59.2184 31 8.61823
    endloop
  endfacet
  facet normal 0 1 0
    outer loop
      vertex 59.11 31 10
      vertex 59.1354 31 8.60657
      vertex 59.11 31 8.60479
    endloop
  endfacet
  facet normal 0.999391 0 -0.0348866
    outer loop
      vertex 60.21 28 9.8
      vertex 60.2071 31 9.71629
      vertex 60.21 31 9.8
    endloop
  endfacet
  facet normal 0.999391 0 -0.0348866
    outer loop
      vertex 60.2071 31 9.71629
      vertex 60.21 28 9.8
      vertex 60.2071 28 9.71629
    endloop
  endfacet
  facet normal 0.984809 -0 0.173642
    outer loop
      vertex 60.1925 28 10
      vertex 60.1983 31 9.96701
      vertex 60.1925 31 10
    endloop
  endfacet
  facet normal 0.984809 0 0.173642
    outer loop
      vertex 60.1983 31 9.96701
      vertex 60.1925 28 10
      vertex 60.1983 28 9.96701
    endloop
  endfacet
  facet normal 0.898799 0 -0.438361
    outer loop
      vertex 60.1063 28 9.31192
      vertex 60.0695 31 9.23663
      vertex 60.1063 31 9.31192
    endloop
  endfacet
  facet normal 0.898799 0 -0.438361
    outer loop
      vertex 60.0695 31 9.23663
      vertex 60.1063 28 9.31192
      vertex 60.0695 28 9.23663
    endloop
  endfacet
  facet normal 0.927186 0 -0.3746
    outer loop
      vertex 60.1376 28 9.38958
      vertex 60.1063 31 9.31192
      vertex 60.1376 31 9.38958
    endloop
  endfacet
  facet normal 0.927186 0 -0.3746
    outer loop
      vertex 60.1063 31 9.31192
      vertex 60.1376 28 9.38958
      vertex 60.1063 28 9.31192
    endloop
  endfacet
  facet normal 0.970294 0 -0.241927
    outer loop
      vertex 60.1838 28 9.55051
      vertex 60.1635 31 9.46923
      vertex 60.1838 31 9.55051
    endloop
  endfacet
  facet normal 0.970294 0 -0.241927
    outer loop
      vertex 60.1635 31 9.46923
      vertex 60.1838 28 9.55051
      vertex 60.1635 28 9.46923
    endloop
  endfacet
  facet normal 0.994522 0 -0.104524
    outer loop
      vertex 60.2071 28 9.71629
      vertex 60.1983 31 9.63299
      vertex 60.2071 31 9.71629
    endloop
  endfacet
  facet normal 0.994522 0 -0.104524
    outer loop
      vertex 60.1983 31 9.63299
      vertex 60.2071 28 9.71629
      vertex 60.1983 28 9.63299
    endloop
  endfacet
  facet normal 0 -1 0
    outer loop
      vertex 59.11 28 10
      vertex 60.1983 28 9.96701
      vertex 60.1925 28 10
    endloop
  endfacet
  facet normal 0 -1 0
    outer loop
      vertex 59.11 28 10
      vertex 60.2071 28 9.88371
      vertex 60.1983 28 9.96701
    endloop
  endfacet
  facet normal 0 -1 0
    outer loop
      vertex 59.11 28 10
      vertex 60.21 28 9.8
      vertex 60.2071 28 9.88371
    endloop
  endfacet
  facet normal 0 -1 0
    outer loop
      vertex 59.11 28 10
      vertex 60.2071 28 9.71629
      vertex 60.21 28 9.8
    endloop
  endfacet
  facet normal 0 -1 0
    outer loop
      vertex 59.11 28 10
      vertex 60.1983 28 9.63299
      vertex 60.2071 28 9.71629
    endloop
  endfacet
  facet normal 0 -1 0
    outer loop
      vertex 59.11 28 10
      vertex 60.1838 28 9.55051
      vertex 60.1983 28 9.63299
    endloop
  endfacet
  facet normal 0 -1 0
    outer loop
      vertex 59.11 28 10
      vertex 60.1635 28 9.46923
      vertex 60.1838 28 9.55051
    endloop
  endfacet
  facet normal 0 -1 0
    outer loop
      vertex 59.11 28 10
      vertex 60.1376 28 9.38958
      vertex 60.1635 28 9.46923
    endloop
  endfacet
  facet normal 0 -1 0
    outer loop
      vertex 59.11 28 10
      vertex 60.1063 28 9.31192
      vertex 60.1376 28 9.38958
    endloop
  endfacet
  facet normal 0 -1 0
    outer loop
      vertex 59.11 28 10
      vertex 60.0695 28 9.23663
      vertex 60.1063 28 9.31192
    endloop
  endfacet
  facet normal 0 -1 0
    outer loop
      vertex 59.11 28 10
      vertex 60.0277 28 9.1641
      vertex 60.0695 28 9.23663
    endloop
  endfacet
  facet normal 0 -1 0
    outer loop
      vertex 59.11 28 10
      vertex 59.9808 28 9.09466
      vertex 60.0277 28 9.1641
    endloop
  endfacet
  facet normal 0 -1 0
    outer loop
      vertex 59.11 28 10
      vertex 59.9293 28 9.02865
      vertex 59.9808 28 9.09466
    endloop
  endfacet
  facet normal 0 -1 0
    outer loop
      vertex 59.11 28 10
      vertex 59.8732 28 8.96641
      vertex 59.9293 28 9.02865
    endloop
  endfacet
  facet normal 0 -1 0
    outer loop
      vertex 59.11 28 10
      vertex 59.813 28 8.90823
      vertex 59.8732 28 8.96641
    endloop
  endfacet
  facet normal 0 -1 0
    outer loop
      vertex 59.11 28 10
      vertex 59.7488 28 8.85439
      vertex 59.813 28 8.90823
    endloop
  endfacet
  facet normal 0 -1 0
    outer loop
      vertex 59.11 28 10
      vertex 59.681 28 8.80515
      vertex 59.7488 28 8.85439
    endloop
  endfacet
  facet normal 0 -1 0
    outer loop
      vertex 59.11 28 10
      vertex 59.61 28 8.76077
      vertex 59.681 28 8.80515
    endloop
  endfacet
  facet normal 0 -1 0
    outer loop
      vertex 59.11 28 10
      vertex 59.536 28 8.72145
      vertex 59.61 28 8.76077
    endloop
  endfacet
  facet normal 0 -1 0
    outer loop
      vertex 59.11 28 10
      vertex 59.4595 28 8.68738
      vertex 59.536 28 8.72145
    endloop
  endfacet
  facet normal 0 -1 0
    outer loop
      vertex 59.11 28 10
      vertex 59.3808 28 8.65873
      vertex 59.4595 28 8.68738
    endloop
  endfacet
  facet normal 0 -1 0
    outer loop
      vertex 59.11 28 10
      vertex 59.3003 28 8.63564
      vertex 59.3808 28 8.65873
    endloop
  endfacet
  facet normal 0 -1 0
    outer loop
      vertex 59.11 28 10
      vertex 59.2184 28 8.61823
      vertex 59.3003 28 8.63564
    endloop
  endfacet
  facet normal 0 -1 0
    outer loop
      vertex 59.11 28 10
      vertex 59.1354 28 8.60657
      vertex 59.2184 28 8.61823
    endloop
  endfacet
  facet normal -0 -1 0
    outer loop
      vertex 59.1354 28 8.60657
      vertex 59.11 28 10
      vertex 59.11 28 8.60479
    endloop
  endfacet
  facet normal -1 0 0
    outer loop
      vertex 92.11 13 3.7
      vertex 92.11 32 6
      vertex 92.11 32 3.7
    endloop
  endfacet
  facet normal -1 -0 0
    outer loop
      vertex 92.11 32 6
      vertex 92.11 13 3.7
      vertex 92.11 13 6
    endloop
  endfacet
  facet normal 0 1 0
    outer loop
      vertex 92.11 13 6
      vertex 92.11 13 3.7
      vertex 92.1 13 6
    endloop
  endfacet
  facet normal 0 1 -0
    outer loop
      vertex 92.1 13 6
      vertex 89.61 13 10
      vertex 92.1 13 10
    endloop
  endfacet
  facet normal 0 1 0
    outer loop
      vertex 89.61 13 3.7
      vertex 92.1 13 6
      vertex 92.11 13 3.7
    endloop
  endfacet
  facet normal 0 1 0
    outer loop
      vertex 92.1 13 6
      vertex 89.61 13 3.7
      vertex 89.61 13 10
    endloop
  endfacet
  facet normal 0 -1 0
    outer loop
      vertex 89.61 32 10
      vertex 92.1 32 6
      vertex 92.1 32 10
    endloop
  endfacet
  facet normal 0 -1 0
    outer loop
      vertex 89.61 32 3.7
      vertex 92.1 32 6
      vertex 89.61 32 10
    endloop
  endfacet
  facet normal 0 -1 0
    outer loop
      vertex 92.11 32 3.7
      vertex 92.1 32 6
      vertex 89.61 32 3.7
    endloop
  endfacet
  facet normal 0 -1 0
    outer loop
      vertex 92.1 32 6
      vertex 92.11 32 3.7
      vertex 92.11 32 6
    endloop
  endfacet
  facet normal 1 -0 0
    outer loop
      vertex 76.86 15 3.7
      vertex 76.86 33 0
      vertex 76.86 33 3.7
    endloop
  endfacet
  facet normal 1 0 0
    outer loop
      vertex 76.86 33 0
      vertex 76.86 15 3.7
      vertex 76.86 15 0
    endloop
  endfacet
  facet normal -1 0 0
    outer loop
      vertex 86.86 15 0
      vertex 86.86 33 3.7
      vertex 86.86 33 0
    endloop
  endfacet
  facet normal -1 -0 0
    outer loop
      vertex 86.86 33 3.7
      vertex 86.86 15 0
      vertex 86.86 15 3.7
    endloop
  endfacet
  facet normal 0 1 -0
    outer loop
      vertex 86.86 15 0
      vertex 76.86 15 3.7
      vertex 86.86 15 3.7
    endloop
  endfacet
  facet normal 0 1 0
    outer loop
      vertex 76.86 15 3.7
      vertex 86.86 15 0
      vertex 76.86 15 0
    endloop
  endfacet
  facet normal 0 -1 0
    outer loop
      vertex 76.86 33 0
      vertex 86.86 33 3.7
      vertex 76.86 33 3.7
    endloop
  endfacet
  facet normal 0 -1 -0
    outer loop
      vertex 86.86 33 3.7
      vertex 76.86 33 0
      vertex 86.86 33 0
    endloop
  endfacet
  facet normal 1 -0 0
    outer loop
      vertex 6 6 10
      vertex 6 42 3
      vertex 6 42 10
    endloop
  endfacet
  facet normal 1 0 0
    outer loop
      vertex 6 42 3
      vertex 6 6 10
      vertex 6 6 3
    endloop
  endfacet
  facet normal -1 0 0
    outer loop
      vertex 53 6 3
      vertex 53 21.5 10
      vertex 53 21.5 3
    endloop
  endfacet
  facet normal -1 -0 0
    outer loop
      vertex 53 21.5 10
      vertex 53 6 3
      vertex 53 6 10
    endloop
  endfacet
  facet normal -1 0 0
    outer loop
      vertex 53 26.5 3
      vertex 53 42 10
      vertex 53 42 3
    endloop
  endfacet
  facet normal -1 -0 0
    outer loop
      vertex 53 42 10
      vertex 53 26.5 3
      vertex 53 26.5 10
    endloop
  endfacet
  facet normal 0 -1 0
    outer loop
      vertex 32 42 3
      vertex 53 42 10
      vertex 32 42 10
    endloop
  endfacet
  facet normal 0 -1 -0
    outer loop
      vertex 53 42 10
      vertex 32 42 3
      vertex 53 42 3
    endloop
  endfacet
  facet normal 0 -1 0
    outer loop
      vertex 6 42 3
      vertex 27 42 10
      vertex 6 42 10
    endloop
  endfacet
  facet normal 0 -1 -0
    outer loop
      vertex 27 42 10
      vertex 6 42 3
      vertex 27 42 3
    endloop
  endfacet
  facet normal 0 0 1
    outer loop
      vertex 32 44 3
      vertex 27 44 3
      vertex 32 42 3
    endloop
  endfacet
  facet normal -0 0 1
    outer loop
      vertex 50 39 3
      vertex 53 26.5 3
      vertex 53 42 3
    endloop
  endfacet
  facet normal 0 0 1
    outer loop
      vertex 53 26.5 3
      vertex 50 39 3
      vertex 53 21.5 3
    endloop
  endfacet
  facet normal 0 0 1
    outer loop
      vertex 50 9 3
      vertex 53 21.5 3
      vertex 50 39 3
    endloop
  endfacet
  facet normal -0 0 1
    outer loop
      vertex 32 42 3
      vertex 50 39 3
      vertex 53 42 3
    endloop
  endfacet
  facet normal 0 0 1
    outer loop
      vertex 27 42 3
      vertex 32 42 3
      vertex 27 44 3
    endloop
  endfacet
  facet normal -0 0 1
    outer loop
      vertex 27 42 3
      vertex 50 39 3
      vertex 32 42 3
    endloop
  endfacet
  facet normal 0 0 1
    outer loop
      vertex 27 42 3
      vertex 9 39 3
      vertex 50 39 3
    endloop
  endfacet
  facet normal 0 0 1
    outer loop
      vertex 9 39 3
      vertex 6 42 3
      vertex 9 9 3
    endloop
  endfacet
  facet normal -0 0 1
    outer loop
      vertex 6 42 3
      vertex 9 39 3
      vertex 27 42 3
    endloop
  endfacet
  facet normal -0 0 1
    outer loop
      vertex 53 26.5 3
      vertex 55 21.5 3
      vertex 55 26.5 3
    endloop
  endfacet
  facet normal 0 0 1
    outer loop
      vertex 55 21.5 3
      vertex 53 26.5 3
      vertex 53 21.5 3
    endloop
  endfacet
  facet normal 0 0 1
    outer loop
      vertex 53 21.5 3
      vertex 50 9 3
      vertex 53 6 3
    endloop
  endfacet
  facet normal -0 0 1
    outer loop
      vertex 9 9 3
      vertex 53 6 3
      vertex 50 9 3
    endloop
  endfacet
  facet normal 0 0 1
    outer loop
      vertex 9 9 3
      vertex 6 6 3
      vertex 53 6 3
    endloop
  endfacet
  facet normal 0 0 1
    outer loop
      vertex 6 6 3
      vertex 9 9 3
      vertex 6 42 3
    endloop
  endfacet
  facet normal 0 1 -0
    outer loop
      vertex 53 6 3
      vertex 6 6 10
      vertex 53 6 10
    endloop
  endfacet
  facet normal 0 1 0
    outer loop
      vertex 6 6 10
      vertex 53 6 3
      vertex 6 6 3
    endloop
  endfacet
  facet normal 1 -0 0
    outer loop
      vertex 27 42 10
      vertex 27 44 3
      vertex 27 44 10
    endloop
  endfacet
  facet normal 1 0 0
    outer loop
      vertex 27 44 3
      vertex 27 42 10
      vertex 27 42 3
    endloop
  endfacet
  facet normal -1 0 0
    outer loop
      vertex 32 42 3
      vertex 32 44 10
      vertex 32 44 3
    endloop
  endfacet
  facet normal -1 -0 0
    outer loop
      vertex 32 44 10
      vertex 32 42 3
      vertex 32 42 10
    endloop
  endfacet
  facet normal 0 -1 0
    outer loop
      vertex 27 44 3
      vertex 32 44 10
      vertex 27 44 10
    endloop
  endfacet
  facet normal 0 -1 -0
    outer loop
      vertex 32 44 10
      vertex 27 44 3
      vertex 32 44 3
    endloop
  endfacet
  facet normal -1 0 0
    outer loop
      vertex 55 21.5 3
      vertex 55 26.5 10
      vertex 55 26.5 3
    endloop
  endfacet
  facet normal -1 -0 0
    outer loop
      vertex 55 26.5 10
      vertex 55 21.5 3
      vertex 55 21.5 10
    endloop
  endfacet
  facet normal 0 -1 0
    outer loop
      vertex 53 26.5 3
      vertex 55 26.5 10
      vertex 53 26.5 10
    endloop
  endfacet
  facet normal 0 -1 -0
    outer loop
      vertex 55 26.5 10
      vertex 53 26.5 3
      vertex 55 26.5 3
    endloop
  endfacet
  facet normal 0 1 -0
    outer loop
      vertex 55 21.5 3
      vertex 53 21.5 10
      vertex 55 21.5 10
    endloop
  endfacet
  facet normal 0 1 0
    outer loop
      vertex 53 21.5 10
      vertex 55 21.5 3
      vertex 53 21.5 3
    endloop
  endfacet
  facet normal 1 -0 0
    outer loop
      vertex 9 9 3
      vertex 9 39 0
      vertex 9 39 3
    endloop
  endfacet
  facet normal 1 0 0
    outer loop
      vertex 9 39 0
      vertex 9 9 3
      vertex 9 9 0
    endloop
  endfacet
  facet normal -1 0 0
    outer loop
      vertex 50 9 0
      vertex 50 39 3
      vertex 50 39 0
    endloop
  endfacet
  facet normal -1 -0 0
    outer loop
      vertex 50 39 3
      vertex 50 9 0
      vertex 50 9 3
    endloop
  endfacet
  facet normal 0 -1 0
    outer loop
      vertex 9 39 0
      vertex 50 39 3
      vertex 9 39 3
    endloop
  endfacet
  facet normal 0 -1 -0
    outer loop
      vertex 50 39 3
      vertex 9 39 0
      vertex 50 39 0
    endloop
  endfacet
  facet normal 0 1 -0
    outer loop
      vertex 50 9 0
      vertex 9 9 3
      vertex 50 9 3
    endloop
  endfacet
  facet normal 0 1 0
    outer loop
      vertex 9 9 3
      vertex 50 9 0
      vertex 9 9 0
    endloop
  endfacet
  facet normal 1 -0 0
    outer loop
      vertex 1.6 1.5 2.5
      vertex 1.6 6.5 0
      vertex 1.6 6.5 2.5
    endloop
  endfacet
  facet normal 1 0 0
    outer loop
      vertex 1.6 6.5 0
      vertex 1.6 1.5 2.5
      vertex 1.6 1.5 0
    endloop
  endfacet
  facet normal 0 0 -1
    outer loop
      vertex 1.6 1.5 2.5
      vertex 14.6 6.5 2.5
      vertex 14.6 1.5 2.5
    endloop
  endfacet
  facet normal -0 0 -1
    outer loop
      vertex 14.6 6.5 2.5
      vertex 1.6 1.5 2.5
      vertex 1.6 6.5 2.5
    endloop
  endfacet
  facet normal -1 0 0
    outer loop
      vertex 14.6 1.5 0
      vertex 14.6 6.5 2.5
      vertex 14.6 6.5 0
    endloop
  endfacet
  facet normal -1 -0 0
    outer loop
      vertex 14.6 6.5 2.5
      vertex 14.6 1.5 0
      vertex 14.6 1.5 2.5
    endloop
  endfacet
  facet normal 0 -1 0
    outer loop
      vertex 1.6 6.5 0
      vertex 14.6 6.5 2.5
      vertex 1.6 6.5 2.5
    endloop
  endfacet
  facet normal 0 -1 -0
    outer loop
      vertex 14.6 6.5 2.5
      vertex 1.6 6.5 0
      vertex 14.6 6.5 0
    endloop
  endfacet
  facet normal 0 1 -0
    outer loop
      vertex 14.6 1.5 0
      vertex 1.6 1.5 2.5
      vertex 14.6 1.5 2.5
    endloop
  endfacet
  facet normal 0 1 0
    outer loop
      vertex 1.6 1.5 2.5
      vertex 14.6 1.5 0
      vertex 1.6 1.5 0
    endloop
  endfacet
  facet normal 1 -0 0
    outer loop
      vertex 81.6 1.5 2.5
      vertex 81.6 6.5 0
      vertex 81.6 6.5 2.5
    endloop
  endfacet
  facet normal 1 0 0
    outer loop
      vertex 81.6 6.5 0
      vertex 81.6 1.5 2.5
      vertex 81.6 1.5 0
    endloop
  endfacet
  facet normal 0 0 -1
    outer loop
      vertex 81.6 1.5 2.5
      vertex 94.6 6.5 2.5
      vertex 94.6 1.5 2.5
    endloop
  endfacet
  facet normal -0 0 -1
    outer loop
      vertex 94.6 6.5 2.5
      vertex 81.6 1.5 2.5
      vertex 81.6 6.5 2.5
    endloop
  endfacet
  facet normal -1 0 0
    outer loop
      vertex 94.6 1.5 0
      vertex 94.6 6.5 2.5
      vertex 94.6 6.5 0
    endloop
  endfacet
  facet normal -1 -0 0
    outer loop
      vertex 94.6 6.5 2.5
      vertex 94.6 1.5 0
      vertex 94.6 1.5 2.5
    endloop
  endfacet
  facet normal 0 -1 0
    outer loop
      vertex 81.6 6.5 0
      vertex 94.6 6.5 2.5
      vertex 81.6 6.5 2.5
    endloop
  endfacet
  facet normal 0 -1 -0
    outer loop
      vertex 94.6 6.5 2.5
      vertex 81.6 6.5 0
      vertex 94.6 6.5 0
    endloop
  endfacet
  facet normal 0 1 -0
    outer loop
      vertex 94.6 1.5 0
      vertex 81.6 1.5 2.5
      vertex 94.6 1.5 2.5
    endloop
  endfacet
  facet normal 0 1 0
    outer loop
      vertex 81.6 1.5 2.5
      vertex 94.6 1.5 0
      vertex 81.6 1.5 0
    endloop
  endfacet
  facet normal 1 -0 0
    outer loop
      vertex 81.6 41.5 2.5
      vertex 81.6 46.5 0
      vertex 81.6 46.5 2.5
    endloop
  endfacet
  facet normal 1 0 0
    outer loop
      vertex 81.6 46.5 0
      vertex 81.6 41.5 2.5
      vertex 81.6 41.5 0
    endloop
  endfacet
  facet normal 0 0 -1
    outer loop
      vertex 81.6 41.5 2.5
      vertex 94.6 46.5 2.5
      vertex 94.6 41.5 2.5
    endloop
  endfacet
  facet normal -0 0 -1
    outer loop
      vertex 94.6 46.5 2.5
      vertex 81.6 41.5 2.5
      vertex 81.6 46.5 2.5
    endloop
  endfacet
  facet normal -1 0 0
    outer loop
      vertex 94.6 41.5 0
      vertex 94.6 46.5 2.5
      vertex 94.6 46.5 0
    endloop
  endfacet
  facet normal -1 -0 0
    outer loop
      vertex 94.6 46.5 2.5
      vertex 94.6 41.5 0
      vertex 94.6 41.5 2.5
    endloop
  endfacet
  facet normal 0 1 -0
    outer loop
      vertex 94.6 41.5 0
      vertex 81.6 41.5 2.5
      vertex 94.6 41.5 2.5
    endloop
  endfacet
  facet normal 0 1 0
    outer loop
      vertex 81.6 41.5 2.5
      vertex 94.6 41.5 0
      vertex 81.6 41.5 0
    endloop
  endfacet
  facet normal 0 -1 0
    outer loop
      vertex 81.6 46.5 0
      vertex 94.6 46.5 2.5
      vertex 81.6 46.5 2.5
    endloop
  endfacet
  facet normal 0 -1 -0
    outer loop
      vertex 94.6 46.5 2.5
      vertex 81.6 46.5 0
      vertex 94.6 46.5 0
    endloop
  endfacet
  facet normal 1 -0 0
    outer loop
      vertex 1.6 41.5 2.5
      vertex 1.6 46.5 0
      vertex 1.6 46.5 2.5
    endloop
  endfacet
  facet normal 1 0 0
    outer loop
      vertex 1.6 46.5 0
      vertex 1.6 41.5 2.5
      vertex 1.6 41.5 0
    endloop
  endfacet
  facet normal 0 0 -1
    outer loop
      vertex 1.6 41.5 2.5
      vertex 14.6 46.5 2.5
      vertex 14.6 41.5 2.5
    endloop
  endfacet
  facet normal -0 0 -1
    outer loop
      vertex 14.6 46.5 2.5
      vertex 1.6 41.5 2.5
      vertex 1.6 46.5 2.5
    endloop
  endfacet
  facet normal -1 0 0
    outer loop
      vertex 14.6 41.5 0
      vertex 14.6 46.5 2.5
      vertex 14.6 46.5 0
    endloop
  endfacet
  facet normal -1 -0 0
    outer loop
      vertex 14.6 46.5 2.5
      vertex 14.6 41.5 0
      vertex 14.6 41.5 2.5
    endloop
  endfacet
  facet normal 0 -1 0
    outer loop
      vertex 1.6 46.5 0
      vertex 14.6 46.5 2.5
      vertex 1.6 46.5 2.5
    endloop
  endfacet
  facet normal 0 -1 -0
    outer loop
      vertex 14.6 46.5 2.5
      vertex 1.6 46.5 0
      vertex 14.6 46.5 0
    endloop
  endfacet
  facet normal 0 1 -0
    outer loop
      vertex 14.6 41.5 0
      vertex 1.6 41.5 2.5
      vertex 14.6 41.5 2.5
    endloop
  endfacet
  facet normal 0 1 0
    outer loop
      vertex 1.6 41.5 2.5
      vertex 14.6 41.5 0
      vertex 1.6 41.5 0
    endloop
  endfacet
endsolid OpenSCAD_Model
